# 3ds Max Wavefront OBJ Exporter v0.97b - (c)2007 guruware
# File Created: 20.03.2017 17:02:37

mtllib cabinet.mtl

#
# object ____
#

v  -260.5068 4.9999 471.0438
v  -259.3619 -0.0001 468.9624
v  -281.5957 -0.0001 468.9624
v  -280.4508 4.9999 471.0438
v  -292.7126 -0.0001 489.1716
v  -290.4228 4.9999 489.1716
v  -281.5957 -0.0001 509.3804
v  -280.4508 4.9999 507.2992
v  -259.3619 -0.0001 509.3804
v  -260.5068 4.9999 507.2992
v  -248.2450 -0.0001 489.1716
v  -250.5348 4.9999 489.1716
v  -274.1654 9.9999 482.4699
v  -266.7923 9.9999 482.4699
v  -277.8521 9.9999 489.1716
v  -274.1654 9.9999 495.8732
v  -266.7923 9.9999 495.8732
v  -263.1057 9.9999 489.1716
v  -274.1654 14.9999 482.4699
v  -266.7923 14.9999 482.4699
v  -277.8521 14.9999 489.1716
v  -274.1654 14.9999 495.8732
v  -266.7923 14.9999 495.8732
v  -263.1057 14.9999 489.1716
v  -272.6340 14.9999 485.2537
v  -268.3237 14.9999 485.2537
v  -274.7892 14.9999 489.1716
v  -272.6340 14.9999 493.0894
v  -268.3237 14.9999 493.0894
v  -266.1685 14.9999 489.1716
v  -272.6340 29.9999 485.2537
v  -268.3237 29.9999 485.2537
v  -274.7892 29.9999 489.1716
v  -272.6340 29.9999 493.0894
v  -268.3237 29.9999 493.0894
v  -266.1685 29.9999 489.1716
v  -293.8668 2025.0004 -520.5991
v  -293.8668 2025.0004 510.2493
v  293.8668 2025.0004 510.2493
v  293.8668 2025.0004 -520.5991
v  295.8390 25.0000 510.2493
v  295.8390 25.0000 -520.5991
v  295.8390 2023.0000 -520.5991
v  295.8390 2023.0000 510.2493
v  293.8668 25.0000 -522.6691
v  -293.8668 25.0000 -522.6691
v  -293.8668 2023.0000 -522.6691
v  293.8668 2023.0000 -522.6691
v  -295.8390 25.0000 -520.5991
v  -295.8390 25.0000 510.2493
v  -295.8390 2023.0000 510.2493
v  -295.8390 2023.0000 -520.5991
v  285.9776 25.0000 522.6691
v  285.9776 2023.0000 522.6691
v  -285.9776 2023.0000 522.6691
v  -285.9776 25.0000 522.6691
v  293.8668 25.0000 512.3194
v  293.8668 2023.0000 512.3194
v  -293.8668 25.0000 512.3194
v  -293.8668 2023.0000 512.3194
v  285.9776 2023.0000 512.3194
v  285.9776 25.0000 512.3194
v  -285.9776 25.0000 512.3194
v  -285.9776 2023.0000 512.3194
v  -260.5068 4.9999 -516.7699
v  -259.3619 -0.0001 -518.8513
v  -281.5957 -0.0001 -518.8513
v  -280.4508 4.9999 -516.7699
v  -292.7126 -0.0001 -498.6421
v  -290.4228 4.9999 -498.6421
v  -281.5957 -0.0001 -478.4332
v  -280.4508 4.9999 -480.5145
v  -259.3619 -0.0001 -478.4332
v  -260.5068 4.9999 -480.5145
v  -248.2450 -0.0001 -498.6421
v  -250.5348 4.9999 -498.6421
v  -274.1654 9.9999 -505.3438
v  -266.7923 9.9999 -505.3438
v  -277.8521 9.9999 -498.6421
v  -274.1654 9.9999 -491.9405
v  -266.7923 9.9999 -491.9405
v  -263.1057 9.9999 -498.6421
v  -274.1654 14.9999 -505.3438
v  -266.7923 14.9999 -505.3438
v  -277.8521 14.9999 -498.6421
v  -274.1654 14.9999 -491.9405
v  -266.7923 14.9999 -491.9405
v  -263.1057 14.9999 -498.6421
v  -272.6340 14.9999 -502.5600
v  -268.3237 14.9999 -502.5600
v  -274.7892 14.9999 -498.6421
v  -272.6340 14.9999 -494.7243
v  -268.3237 14.9999 -494.7243
v  -266.1685 14.9999 -498.6421
v  -272.6340 29.9999 -502.5600
v  -268.3237 29.9999 -502.5600
v  -274.7892 29.9999 -498.6421
v  -272.6340 29.9999 -494.7243
v  -268.3237 29.9999 -494.7243
v  -266.1685 29.9999 -498.6421
v  281.1637 4.9999 471.0438
v  282.3086 -0.0001 468.9624
v  260.0748 -0.0001 468.9624
v  261.2197 4.9999 471.0438
v  248.9579 -0.0001 489.1716
v  251.2477 4.9999 489.1716
v  260.0748 -0.0001 509.3804
v  261.2197 4.9999 507.2992
v  282.3086 -0.0001 509.3804
v  281.1637 4.9999 507.2992
v  293.4254 -0.0001 489.1716
v  291.1357 4.9999 489.1716
v  267.5051 9.9999 482.4699
v  274.8781 9.9999 482.4699
v  263.8184 9.9999 489.1716
v  267.5051 9.9999 495.8732
v  274.8781 9.9999 495.8732
v  278.5647 9.9999 489.1716
v  267.5051 14.9999 482.4699
v  274.8781 14.9999 482.4699
v  263.8184 14.9999 489.1716
v  267.5051 14.9999 495.8732
v  274.8781 14.9999 495.8732
v  278.5647 14.9999 489.1716
v  269.0364 14.9999 485.2537
v  273.3467 14.9999 485.2537
v  266.8813 14.9999 489.1716
v  269.0364 14.9999 493.0894
v  273.3467 14.9999 493.0894
v  275.5020 14.9999 489.1716
v  269.0364 29.9999 485.2537
v  273.3467 29.9999 485.2537
v  266.8813 29.9999 489.1716
v  269.0364 29.9999 493.0894
v  273.3467 29.9999 493.0894
v  275.5020 29.9999 489.1716
v  281.1637 4.9999 -516.7699
v  282.3086 -0.0001 -518.8513
v  260.0748 -0.0001 -518.8513
v  261.2197 4.9999 -516.7699
v  248.9579 -0.0001 -498.6421
v  251.2477 4.9999 -498.6421
v  260.0748 -0.0001 -478.4332
v  261.2197 4.9999 -480.5145
v  282.3086 -0.0001 -478.4332
v  281.1637 4.9999 -480.5145
v  293.4254 -0.0001 -498.6421
v  291.1357 4.9999 -498.6421
v  267.5051 9.9999 -505.3438
v  274.8781 9.9999 -505.3438
v  263.8184 9.9999 -498.6421
v  267.5051 9.9999 -491.9405
v  274.8781 9.9999 -491.9405
v  278.5647 9.9999 -498.6421
v  267.5051 14.9999 -505.3438
v  274.8781 14.9999 -505.3438
v  263.8184 14.9999 -498.6421
v  267.5051 14.9999 -491.9405
v  274.8781 14.9999 -491.9405
v  278.5647 14.9999 -498.6421
v  269.0364 14.9999 -502.5600
v  273.3467 14.9999 -502.5600
v  266.8813 14.9999 -498.6421
v  269.0364 14.9999 -494.7243
v  273.3467 14.9999 -494.7243
v  275.5020 14.9999 -498.6421
v  269.0364 29.9999 -502.5600
v  273.3467 29.9999 -502.5600
v  266.8813 29.9999 -498.6421
v  269.0364 29.9999 -494.7243
v  273.3467 29.9999 -494.7243
v  275.5020 29.9999 -498.6421
# 172 vertices

vn 0.0000 0.3731 -0.9278
vn -0.8035 0.3731 -0.4639
vn -0.8035 0.3731 0.4639
vn -0.0000 0.3731 0.9278
vn 0.8035 0.3731 0.4639
vn 0.8035 0.3731 -0.4639
vn 0.0000 0.9109 -0.4126
vn -0.3573 0.9109 -0.2063
vn -0.3573 0.9109 0.2063
vn -0.0000 0.9109 0.4126
vn 0.3573 0.9109 0.2063
vn 0.3573 0.9109 -0.2063
vn 0.0000 0.0000 -1.0000
vn -0.8660 0.0000 -0.5000
vn -0.8660 0.0000 0.5000
vn -0.0000 0.0000 1.0000
vn 0.8660 0.0000 0.5000
vn 0.8660 0.0000 -0.5000
vn 0.0000 1.0000 -0.0000
vn 1.0000 0.0000 0.0000
vn -1.0000 0.0000 -0.0000
vn 0.7072 0.7070 0.0000
vn 0.0000 0.7071 -0.7072
vn -0.7072 0.7070 -0.0000
vn 0.7071 0.0000 0.7071
vn 0.7071 0.0000 -0.7071
vn -0.7071 0.0000 -0.7071
vn -0.7071 0.0000 0.7071
vn -0.0000 0.7071 0.7071
vn 0.5774 0.5773 0.5774
vn 0.5774 0.5773 -0.5774
vn -0.5774 0.5773 -0.5774
vn -0.5774 0.5773 0.5774
# 33 vertex normals

vt 0.4517 0.8776 0.0000
vt 0.4507 0.8757 0.0000
vt 0.4584 0.8739 0.0000
vt 0.4583 0.8761 0.0000
vt 0.4654 0.8749 0.0000
vt 0.4650 0.8773 0.0000
vt 0.4470 0.9025 0.0000
vt 0.4427 0.8960 0.0000
vt 0.4447 0.8953 0.0000
vt 0.4484 0.9008 0.0000
vt 0.4420 0.8882 0.0000
vt 0.4441 0.8885 0.0000
vt 0.4449 0.8809 0.0000
vt 0.4467 0.8821 0.0000
vt 0.4578 0.8802 0.0000
vt 0.4536 0.8813 0.0000
vt 0.4643 0.8789 0.0000
vt 0.4610 0.8818 0.0000
vt 0.4486 0.8939 0.0000
vt 0.4510 0.8976 0.0000
vt 0.4482 0.8891 0.0000
vt 0.4500 0.8845 0.0000
vt 0.4825 0.9180 0.0000
vt 0.4789 0.9180 0.0000
vt 0.4789 0.9157 0.0000
vt 0.4825 0.9157 0.0000
vt 0.4859 0.9157 0.0000
vt 0.4859 0.9181 0.0000
vt 0.4645 0.9157 0.0000
vt 0.4681 0.9157 0.0000
vt 0.4681 0.9180 0.0000
vt 0.4645 0.9180 0.0000
vt 0.4717 0.9157 0.0000
vt 0.4717 0.9180 0.0000
vt 0.4753 0.9157 0.0000
vt 0.4753 0.9180 0.0000
vt 0.4674 0.9364 0.0000
vt 0.4689 0.9350 0.0000
vt 0.4703 0.9355 0.0000
vt 0.4677 0.9378 0.0000
vt 0.4653 0.9375 0.0000
vt 0.4629 0.9350 0.0000
vt 0.4643 0.9346 0.0000
vt 0.4657 0.9361 0.0000
vt 0.4636 0.9317 0.0000
vt 0.4647 0.9326 0.0000
vt 0.4668 0.9304 0.0000
vt 0.4667 0.9318 0.0000
vt 0.4698 0.9321 0.0000
vt 0.4686 0.9329 0.0000
vt 0.4746 0.9271 0.0000
vt 0.4724 0.9271 0.0000
vt 0.4725 0.9201 0.0000
vt 0.4746 0.9201 0.0000
vt 0.4766 0.9201 0.0000
vt 0.4766 0.9272 0.0000
vt 0.4640 0.9270 0.0000
vt 0.4641 0.9200 0.0000
vt 0.4662 0.9200 0.0000
vt 0.4661 0.9271 0.0000
vt 0.4683 0.9200 0.0000
vt 0.4682 0.9271 0.0000
vt 0.4704 0.9201 0.0000
vt 0.4703 0.9271 0.0000
vt 0.8616 0.6734 0.0000
vt 0.8616 0.9908 0.0000
vt 0.6683 0.9908 0.0000
vt 0.6683 0.6734 0.0000
vt 0.0092 0.8437 0.0000
vt 0.0096 0.5236 0.0000
vt 0.6508 0.5236 0.0000
vt 0.6512 0.8437 0.0000
vt 0.0096 0.5227 0.0000
vt 0.0096 0.3302 0.0000
vt 0.6508 0.3302 0.0000
vt 0.6508 0.5227 0.0000
vt 0.0096 0.3293 0.0000
vt 0.0092 0.0092 0.0000
vt 0.6512 0.0092 0.0000
vt 0.6508 0.3293 0.0000
vt 0.6724 0.6587 0.0000
vt 0.6726 0.0166 0.0000
vt 0.8589 0.0166 0.0000
vt 0.8590 0.6587 0.0000
vt 0.6674 0.9908 0.0000
vt 0.6674 0.6734 0.0000
vt 0.9296 0.3778 0.0000
vt 0.9286 0.3778 0.0000
vt 0.9286 0.1850 0.0000
vt 0.9296 0.1850 0.0000
vt 0.8625 0.6734 0.0000
vt 0.8625 0.9908 0.0000
vt 0.8832 0.6607 0.0000
vt 0.8823 0.6607 0.0000
vt 0.8823 0.0176 0.0000
vt 0.8832 0.0176 0.0000
vt 0.9012 0.6609 0.0000
vt 0.9002 0.6609 0.0000
vt 0.9002 0.0172 0.0000
vt 0.9012 0.0172 0.0000
vt 0.8858 0.0176 0.0000
vt 0.8858 0.6607 0.0000
vt 0.8977 0.6609 0.0000
vt 0.8977 0.0172 0.0000
vt 0.6691 0.6587 0.0000
vt 0.6694 0.0166 0.0000
vt 0.6726 0.0134 0.0000
vt 0.8589 0.0134 0.0000
vt 0.8621 0.0166 0.0000
vt 0.8622 0.6587 0.0000
vt 0.9149 0.1901 0.0000
vt 0.9155 0.1889 0.0000
vt 0.9190 0.1914 0.0000
vt 0.9192 0.2331 0.0000
vt 0.9159 0.2365 0.0000
vt 0.9154 0.2357 0.0000
vt 0.9154 0.2373 0.0000
vt 0.9291 0.3786 0.0000
vt 0.9291 0.1842 0.0000
vt 0.9151 0.1883 0.0000
# 120 texture coords

g ____
usemtl Material__2116394949
s off
f 1/1/1 2/2/1 3/3/1 
f 3/3/1 4/4/1 1/1/1 
f 3/3/2 5/5/2 6/6/2 
f 6/6/2 4/4/2 3/3/2 
f 5/7/3 7/8/3 8/9/3 
f 8/9/3 6/10/3 5/7/3 
f 7/8/4 9/11/4 10/12/4 
f 10/12/4 8/9/4 7/8/4 
f 9/11/5 11/13/5 12/14/5 
f 12/14/5 10/12/5 9/11/5 
f 11/13/6 2/2/6 1/1/6 
f 1/1/6 12/14/6 11/13/6 
f 13/15/7 14/16/7 1/1/7 
f 1/1/7 4/4/7 13/15/7 
f 4/4/8 6/17/8 15/18/8 
f 15/18/8 13/15/8 4/4/8 
f 6/10/9 8/9/9 16/19/9 
f 16/19/9 15/20/9 6/10/9 
f 8/9/10 10/12/10 17/21/10 
f 17/21/10 16/19/10 8/9/10 
f 10/12/11 12/14/11 18/22/11 
f 18/22/11 17/21/11 10/12/11 
f 12/14/12 1/1/12 14/16/12 
f 14/16/12 18/22/12 12/14/12 
f 19/23/13 20/24/13 14/25/13 
f 14/25/13 13/26/13 19/23/13 
f 13/26/14 15/27/14 21/28/14 
f 21/28/14 19/23/14 13/26/14 
f 15/29/15 16/30/15 22/31/15 
f 22/31/15 21/32/15 15/29/15 
f 16/30/16 17/33/16 23/34/16 
f 23/34/16 22/31/16 16/30/16 
f 17/33/17 18/35/17 24/36/17 
f 24/36/17 23/34/17 17/33/17 
f 18/35/18 14/25/18 20/24/18 
f 20/24/18 24/36/18 18/35/18 
f 25/37/19 26/38/19 20/39/19 
f 20/39/19 19/40/19 25/37/19 
f 19/41/19 21/42/19 27/43/19 
f 27/43/19 25/44/19 19/41/19 
f 21/42/19 22/45/19 28/46/19 
f 28/46/19 27/43/19 21/42/19 
f 22/45/19 23/47/19 29/48/19 
f 29/48/19 28/46/19 22/45/19 
f 23/47/19 24/49/19 30/50/19 
f 30/50/19 29/48/19 23/47/19 
f 24/49/19 20/39/19 26/38/19 
f 26/38/19 30/50/19 24/49/19 
f 31/51/13 32/52/13 26/53/13 
f 26/53/13 25/54/13 31/51/13 
f 31/51/14 25/54/14 27/55/14 
f 27/55/14 33/56/14 31/51/14 
f 33/57/15 27/58/15 28/59/15 
f 28/59/15 34/60/15 33/57/15 
f 34/60/16 28/59/16 29/61/16 
f 29/61/16 35/62/16 34/60/16 
f 35/62/17 29/61/17 30/63/17 
f 30/63/17 36/64/17 35/62/17 
f 36/64/18 30/63/18 26/53/18 
f 26/53/18 32/52/18 36/64/18 
f 37/65/19 38/66/19 39/67/19 
f 39/67/19 40/68/19 37/65/19 
f 41/69/20 42/70/20 43/71/20 
f 43/71/20 44/72/20 41/69/20 
f 45/73/13 46/74/13 47/75/13 
f 47/75/13 48/76/13 45/73/13 
f 49/77/21 50/78/21 51/79/21 
f 51/79/21 52/80/21 49/77/21 
f 53/81/16 54/82/16 55/83/16 
f 55/83/16 56/84/16 53/81/16 
f 39/67/22 44/85/22 43/86/22 
f 43/86/22 40/68/22 39/67/22 
f 40/87/23 48/88/23 47/89/23 
f 47/89/23 37/90/23 40/87/23 
f 37/65/24 52/91/24 51/92/24 
f 51/92/24 38/66/24 37/65/24 
f 57/93/25 41/94/25 44/95/25 
f 44/95/25 58/96/25 57/93/25 
f 42/70/26 45/73/26 48/76/26 
f 48/76/26 43/71/26 42/70/26 
f 46/74/27 49/77/27 52/80/27 
f 52/80/27 47/75/27 46/74/27 
f 50/97/28 59/98/28 60/99/28 
f 60/99/28 51/100/28 50/97/28 
f 57/93/16 58/96/16 61/101/16 
f 61/101/16 62/102/16 57/93/16 
f 60/99/16 59/98/16 63/103/16 
f 63/103/16 64/104/16 60/99/16 
f 62/105/20 61/106/20 54/82/20 
f 54/82/20 53/81/20 62/105/20 
f 61/107/19 64/108/19 55/83/19 
f 55/83/19 54/82/19 61/107/19 
f 64/109/21 63/110/21 56/84/21 
f 56/84/21 55/83/21 64/109/21 
f 38/111/29 60/112/29 64/113/29 
f 64/113/29 61/114/29 38/111/29 
f 38/111/29 61/114/29 58/115/29 
f 58/115/29 39/116/29 38/111/29 
f 44/117/30 39/116/30 58/115/30 
f 48/88/31 40/87/31 43/118/31 
f 52/119/32 37/90/32 47/89/32 
f 60/112/33 38/111/33 51/120/33 
f 65/1/1 66/2/1 67/3/1 
f 67/3/1 68/4/1 65/1/1 
f 67/3/2 69/5/2 70/6/2 
f 70/6/2 68/4/2 67/3/2 
f 69/7/3 71/8/3 72/9/3 
f 72/9/3 70/10/3 69/7/3 
f 71/8/4 73/11/4 74/12/4 
f 74/12/4 72/9/4 71/8/4 
f 73/11/5 75/13/5 76/14/5 
f 76/14/5 74/12/5 73/11/5 
f 75/13/6 66/2/6 65/1/6 
f 65/1/6 76/14/6 75/13/6 
f 77/15/7 78/16/7 65/1/7 
f 65/1/7 68/4/7 77/15/7 
f 68/4/8 70/17/8 79/18/8 
f 79/18/8 77/15/8 68/4/8 
f 70/10/9 72/9/9 80/19/9 
f 80/19/9 79/20/9 70/10/9 
f 72/9/10 74/12/10 81/21/10 
f 81/21/10 80/19/10 72/9/10 
f 74/12/11 76/14/11 82/22/11 
f 82/22/11 81/21/11 74/12/11 
f 76/14/12 65/1/12 78/16/12 
f 78/16/12 82/22/12 76/14/12 
f 83/23/13 84/24/13 78/25/13 
f 78/25/13 77/26/13 83/23/13 
f 77/26/14 79/27/14 85/28/14 
f 85/28/14 83/23/14 77/26/14 
f 79/29/15 80/30/15 86/31/15 
f 86/31/15 85/32/15 79/29/15 
f 80/30/16 81/33/16 87/34/16 
f 87/34/16 86/31/16 80/30/16 
f 81/33/17 82/35/17 88/36/17 
f 88/36/17 87/34/17 81/33/17 
f 82/35/18 78/25/18 84/24/18 
f 84/24/18 88/36/18 82/35/18 
f 89/37/19 90/38/19 84/39/19 
f 84/39/19 83/40/19 89/37/19 
f 83/41/19 85/42/19 91/43/19 
f 91/43/19 89/44/19 83/41/19 
f 85/42/19 86/45/19 92/46/19 
f 92/46/19 91/43/19 85/42/19 
f 86/45/19 87/47/19 93/48/19 
f 93/48/19 92/46/19 86/45/19 
f 87/47/19 88/49/19 94/50/19 
f 94/50/19 93/48/19 87/47/19 
f 88/49/19 84/39/19 90/38/19 
f 90/38/19 94/50/19 88/49/19 
f 95/51/13 96/52/13 90/53/13 
f 90/53/13 89/54/13 95/51/13 
f 95/51/14 89/54/14 91/55/14 
f 91/55/14 97/56/14 95/51/14 
f 97/57/15 91/58/15 92/59/15 
f 92/59/15 98/60/15 97/57/15 
f 98/60/16 92/59/16 93/61/16 
f 93/61/16 99/62/16 98/60/16 
f 99/62/17 93/61/17 94/63/17 
f 94/63/17 100/64/17 99/62/17 
f 100/64/18 94/63/18 90/53/18 
f 90/53/18 96/52/18 100/64/18 
f 101/1/1 102/2/1 103/3/1 
f 103/3/1 104/4/1 101/1/1 
f 103/3/2 105/5/2 106/6/2 
f 106/6/2 104/4/2 103/3/2 
f 105/7/3 107/8/3 108/9/3 
f 108/9/3 106/10/3 105/7/3 
f 107/8/4 109/11/4 110/12/4 
f 110/12/4 108/9/4 107/8/4 
f 109/11/5 111/13/5 112/14/5 
f 112/14/5 110/12/5 109/11/5 
f 111/13/6 102/2/6 101/1/6 
f 101/1/6 112/14/6 111/13/6 
f 113/15/7 114/16/7 101/1/7 
f 101/1/7 104/4/7 113/15/7 
f 104/4/8 106/17/8 115/18/8 
f 115/18/8 113/15/8 104/4/8 
f 106/10/9 108/9/9 116/19/9 
f 116/19/9 115/20/9 106/10/9 
f 108/9/10 110/12/10 117/21/10 
f 117/21/10 116/19/10 108/9/10 
f 110/12/11 112/14/11 118/22/11 
f 118/22/11 117/21/11 110/12/11 
f 112/14/12 101/1/12 114/16/12 
f 114/16/12 118/22/12 112/14/12 
f 119/23/13 120/24/13 114/25/13 
f 114/25/13 113/26/13 119/23/13 
f 113/26/14 115/27/14 121/28/14 
f 121/28/14 119/23/14 113/26/14 
f 115/29/15 116/30/15 122/31/15 
f 122/31/15 121/32/15 115/29/15 
f 116/30/16 117/33/16 123/34/16 
f 123/34/16 122/31/16 116/30/16 
f 117/33/17 118/35/17 124/36/17 
f 124/36/17 123/34/17 117/33/17 
f 118/35/18 114/25/18 120/24/18 
f 120/24/18 124/36/18 118/35/18 
f 125/37/19 126/38/19 120/39/19 
f 120/39/19 119/40/19 125/37/19 
f 119/41/19 121/42/19 127/43/19 
f 127/43/19 125/44/19 119/41/19 
f 121/42/19 122/45/19 128/46/19 
f 128/46/19 127/43/19 121/42/19 
f 122/45/19 123/47/19 129/48/19 
f 129/48/19 128/46/19 122/45/19 
f 123/47/19 124/49/19 130/50/19 
f 130/50/19 129/48/19 123/47/19 
f 124/49/19 120/39/19 126/38/19 
f 126/38/19 130/50/19 124/49/19 
f 131/51/13 132/52/13 126/53/13 
f 126/53/13 125/54/13 131/51/13 
f 131/51/14 125/54/14 127/55/14 
f 127/55/14 133/56/14 131/51/14 
f 133/57/15 127/58/15 128/59/15 
f 128/59/15 134/60/15 133/57/15 
f 134/60/16 128/59/16 129/61/16 
f 129/61/16 135/62/16 134/60/16 
f 135/62/17 129/61/17 130/63/17 
f 130/63/17 136/64/17 135/62/17 
f 136/64/18 130/63/18 126/53/18 
f 126/53/18 132/52/18 136/64/18 
f 137/1/1 138/2/1 139/3/1 
f 139/3/1 140/4/1 137/1/1 
f 139/3/2 141/5/2 142/6/2 
f 142/6/2 140/4/2 139/3/2 
f 141/7/3 143/8/3 144/9/3 
f 144/9/3 142/10/3 141/7/3 
f 143/8/4 145/11/4 146/12/4 
f 146/12/4 144/9/4 143/8/4 
f 145/11/5 147/13/5 148/14/5 
f 148/14/5 146/12/5 145/11/5 
f 147/13/6 138/2/6 137/1/6 
f 137/1/6 148/14/6 147/13/6 
f 149/15/7 150/16/7 137/1/7 
f 137/1/7 140/4/7 149/15/7 
f 140/4/8 142/17/8 151/18/8 
f 151/18/8 149/15/8 140/4/8 
f 142/10/9 144/9/9 152/19/9 
f 152/19/9 151/20/9 142/10/9 
f 144/9/10 146/12/10 153/21/10 
f 153/21/10 152/19/10 144/9/10 
f 146/12/11 148/14/11 154/22/11 
f 154/22/11 153/21/11 146/12/11 
f 148/14/12 137/1/12 150/16/12 
f 150/16/12 154/22/12 148/14/12 
f 155/23/13 156/24/13 150/25/13 
f 150/25/13 149/26/13 155/23/13 
f 149/26/14 151/27/14 157/28/14 
f 157/28/14 155/23/14 149/26/14 
f 151/29/15 152/30/15 158/31/15 
f 158/31/15 157/32/15 151/29/15 
f 152/30/16 153/33/16 159/34/16 
f 159/34/16 158/31/16 152/30/16 
f 153/33/17 154/35/17 160/36/17 
f 160/36/17 159/34/17 153/33/17 
f 154/35/18 150/25/18 156/24/18 
f 156/24/18 160/36/18 154/35/18 
f 161/37/19 162/38/19 156/39/19 
f 156/39/19 155/40/19 161/37/19 
f 155/41/19 157/42/19 163/43/19 
f 163/43/19 161/44/19 155/41/19 
f 157/42/19 158/45/19 164/46/19 
f 164/46/19 163/43/19 157/42/19 
f 158/45/19 159/47/19 165/48/19 
f 165/48/19 164/46/19 158/45/19 
f 159/47/19 160/49/19 166/50/19 
f 166/50/19 165/48/19 159/47/19 
f 160/49/19 156/39/19 162/38/19 
f 162/38/19 166/50/19 160/49/19 
f 167/51/13 168/52/13 162/53/13 
f 162/53/13 161/54/13 167/51/13 
f 167/51/14 161/54/14 163/55/14 
f 163/55/14 169/56/14 167/51/14 
f 169/57/15 163/58/15 164/59/15 
f 164/59/15 170/60/15 169/57/15 
f 170/60/16 164/59/16 165/61/16 
f 165/61/16 171/62/16 170/60/16 
f 171/62/17 165/61/17 166/63/17 
f 166/63/17 172/64/17 171/62/17 
f 172/64/18 166/63/18 162/53/18 
f 162/53/18 168/52/18 172/64/18 
# 282 faces

